# xmcd CD database file
#
# Track frame offsets:
#	150
#	17225
#	40990
#	48090
#	60992
#	83197
#	95487
#	127420
#	134967
#	142010
#	158187
#	165027
#	172777
#	179317
#	194650
#
# Disc length: 2755 seconds
#
# Revision: 3
# Processed by: cddbd v1.5.2PL0 Copyright (c) Steve Scherf et al.
# Submitted via: CDex 1.70beta3
#
DISCID=cf0ac10f
DTITLE=ラムネス(CV:草尾 毅)　ミルク(CV:横山 智佐)　ココア(CV:玉川 沙己子)　レスカ(CV:松井 菜桜子)　タマＱ(CV:神代 智衣)　メビメタコ(CV:TARAKO)　ダ･サイダー(CV:矢尾 一樹)　ほか - NG騎士ラム
DTITLE=ネ&40　「俺は今猛烈に熱血しているっ!」
DYEAR=1990
DGENRE=Anime
TTITLE0=ラムネス(CV:草尾 毅)　コーラス：ラムネス応援隊/めざせ!1番!!
TTITLE1=<サムライオン奥様劇場・その１>セピア色の夕暮れ
TTITLE2=りゅう てつし/ドキドキスペース
TTITLE3=松井 忠重/破壊王の力
TTITLE4=松井 忠重/聖なる三姉妹
TTITLE5=ミルク(CV:横山 智佐)/続・男と女はパピプペポ
TTITLE6=<サムライオン奥様劇場・その２>ドドメ色の昼下がり
TTITLE7=松井 忠重/ゴブーリキの野望
TTITLE8=りゅう てつし/聖なる守護騎士
TTITLE9=ラムネス(CV:草尾 毅)/闘え!!キングスカッシャー
TTITLE10=りゅう てつし/クィーンサイダロン
TTITLE11=松井 忠重/守護騎士軍団
TTITLE12=りゅう てつし/新たなる旅立ち
TTITLE13=<サムライオン奥様劇場・その３トキ色の朝ぼらけ
TTITLE14=ミルク(CV:横山 智佐)　ココア(CV:玉川 沙己子)　レスカ(CV:松井 菜桜子)/シアワセになるでんna
EXTD=YEAR: 1990
EXTT0=
EXTT1=
EXTT2=
EXTT3=
EXTT4=
EXTT5=
EXTT6=
EXTT7=
EXTT8=
EXTT9=
EXTT10=
EXTT11=
EXTT12=
EXTT13=
EXTT14=
PLAYORDER=
